<svg version="1.1" id="Layer_1" xmlns="http://www.w3.org/2000/svg" xmlns:xlink="http://www.w3.org/1999/xlink" x="0px" y="0px"
     width="100%" viewBox="0 0 400 400" enable-background="new 0 0 400 400" xml:space="preserve">
<path fill="#000000" opacity="1.000000" stroke="none"
      d="
M216.000000,401.000000
	C144.022339,401.000000 72.544678,401.000000 1.033510,401.000000
	C1.033510,267.730682 1.033510,134.461334 1.033510,1.095999
	C134.227615,1.095999 267.455322,1.095999 400.841492,1.095999
	C400.841492,134.333191 400.841492,267.666565 400.841492,401.000000
	C339.461395,401.000000 277.980713,401.000000 216.000000,401.000000
M41.664867,231.830078
	C45.861057,241.762192 51.123619,251.069717 59.775597,257.750641
	C63.517349,260.639923 65.907005,264.045746 67.944153,268.132568
	C76.972366,286.244385 89.155846,301.971710 104.611465,315.046021
	C134.823196,340.602905 169.850357,352.257019 209.303055,350.672699
	C212.655655,350.538055 214.839569,351.418365 216.949799,354.056915
	C221.402969,359.625000 226.944061,364.074402 232.655151,368.506714
	C235.557831,365.743713 236.394592,362.402588 237.461014,359.387939
	C238.780151,355.658875 241.030899,353.133240 244.335617,351.253571
	C254.148972,345.671906 264.524048,341.797272 275.855194,340.842529
	C281.774933,340.343719 282.335388,339.883575 280.576233,334.136139
	C279.460663,330.491394 280.206818,328.343536 283.395142,326.253235
	C288.258667,323.064758 292.801300,319.385681 297.467651,315.898193
	C298.790894,314.909210 300.054382,313.420593 301.878143,314.210541
	C311.162781,318.232269 317.978577,313.671234 324.260864,307.715668
	C327.148499,304.978149 329.908295,304.328369 333.714508,305.737396
	C340.363281,308.198700 346.377289,307.079437 351.525360,301.738831
	C355.660980,297.448517 360.910004,294.994751 366.724457,293.604675
	C372.598511,292.200378 378.564362,291.846222 384.544769,291.402985
	C386.789490,291.236603 389.672577,291.156647 389.363678,287.726257
	C388.615387,279.416687 387.401489,271.172424 383.451477,263.657471
	C380.602692,258.237549 376.373230,255.022858 369.842041,255.333511
	C366.970245,255.470093 363.936218,256.150940 361.286835,254.950684
	C360.446442,252.386627 361.739197,250.666428 362.400787,248.837540
	C367.354553,235.143784 372.530304,221.593948 365.020081,206.959885
	C363.188446,203.390823 361.513550,201.801910 357.551788,202.295105
	C350.855835,203.128662 350.995148,202.994034 350.716614,196.016708
	C349.952820,176.885590 346.012512,158.427170 338.004150,140.993393
	C319.899811,101.581268 290.290161,74.512154 249.422119,60.174980
	C224.259720,51.347595 198.326065,49.968693 172.162476,55.136036
	C151.471466,59.222534 132.451004,67.398979 115.333031,79.772629
	C112.780098,81.618019 111.054688,81.364479 108.767441,79.511131
	C105.250320,76.661240 101.020180,75.583260 96.554276,76.202782
	C90.300674,77.070290 84.060555,78.059319 78.077019,80.251472
	C63.131557,85.726959 49.287056,93.269485 36.183079,102.253227
	C23.939400,110.647179 21.821625,118.571686 29.308752,131.549469
	C36.485550,143.989319 46.983082,150.525406 60.636837,138.792557
	C62.003384,137.618256 63.369068,135.721558 65.719391,136.545670
	C65.888672,136.939880 66.167519,137.267410 66.117531,137.533035
	C65.966255,138.336716 65.767273,139.150558 65.446457,139.900360
	C60.059288,152.490967 55.863342,165.434219 53.997349,179.046112
	C53.529968,182.455521 51.888912,184.723373 48.863338,186.397186
	C42.812164,189.744812 39.448864,195.035217 38.097630,201.824051
	C36.077560,211.973236 37.656464,221.649078 41.664867,231.830078
z"/>
    <path fill="#000000" opacity="1.000000" stroke="none"
          d="
M74.975952,128.963287
	C69.172531,118.691597 71.687889,117.905518 60.264980,125.195511
	C57.186031,127.160461 54.415482,129.603485 51.442726,131.742783
	C50.378868,132.508347 49.083561,133.644836 47.983753,133.551636
	C42.309689,133.070831 40.195118,128.442322 38.103706,124.144272
	C36.474121,120.795326 34.357380,117.330788 38.799236,114.011017
	C49.528488,105.992134 61.133713,99.550148 73.241272,93.917053
	C79.464348,91.021751 86.003860,89.135368 92.622253,87.483749
	C99.630875,85.734756 103.730949,87.735374 106.821236,94.234344
	C108.853645,98.508568 109.591873,105.744316 108.268280,110.067047
	C104.290833,109.574417 100.227455,108.698006 96.078560,109.368729
	C90.529839,110.265747 89.453331,112.047005 92.195534,116.998299
	C103.171501,136.816376 113.451248,156.957733 121.096481,178.339539
	C126.229027,192.693985 129.991074,207.137787 127.337799,222.720764
	C124.061935,241.960312 105.585670,257.981323 86.099678,257.169983
	C76.126610,256.754730 67.930588,251.986649 61.674576,244.283600
	C52.680290,233.208939 47.173428,220.854370 48.569641,206.129639
	C48.831150,203.371750 49.333603,200.629974 51.257378,198.785034
	C56.298115,193.950897 62.290592,190.548019 68.523933,187.820267
	C69.948914,189.544571 69.501701,190.919937 69.231422,192.155273
	C66.651093,203.949036 69.665192,214.897644 74.250916,225.591019
	C75.572350,228.672455 77.564240,231.398499 79.946991,233.744492
	C84.878632,238.600128 90.681366,241.307404 97.609062,238.963211
	C104.529633,236.621429 106.936668,230.559906 107.602890,224.083176
	C108.818855,212.262054 105.663666,200.960388 102.154282,189.839432
	C95.463867,168.638123 85.591591,148.829651 74.975952,128.963287
M66.140221,230.701004
	C67.163307,231.337540 66.664589,233.472534 68.584610,233.259750
	C70.031265,232.032562 70.057693,230.231537 70.264313,228.697968
	C70.723625,225.288940 69.710190,222.234116 65.940300,221.511719
	C62.757179,220.901779 60.260029,222.775345 59.666470,225.807007
	C58.699875,230.743988 63.153858,229.340302 66.140221,230.701004
M59.223129,211.663681
	C60.148350,211.305161 61.135555,211.054962 61.987061,210.567642
	C64.456085,209.154663 65.350311,206.939819 64.665443,204.229935
	C64.173767,202.284454 62.585503,201.715851 60.769341,202.014877
	C57.464275,202.559067 55.349464,204.707321 54.666286,207.807327
	C54.067722,210.523407 55.934086,211.663040 59.223129,211.663681
z"/>
    <path fill="#000000" opacity="1.000000" stroke="none"
          d="
M188.298950,221.114014
	C199.170914,216.366013 209.950638,212.500839 220.990234,209.281601
	C225.677002,207.914886 228.321701,209.054092 229.598373,213.713409
	C229.947021,214.985825 230.598679,216.177505 231.134903,217.395828
	C232.774475,221.121063 231.666107,223.317612 227.674530,224.436081
	C215.613052,227.815765 215.726959,227.837692 220.401581,239.555862
	C228.966736,261.026672 236.190918,282.975891 243.458267,304.907562
	C244.033157,306.642456 244.622116,308.373871 245.256897,310.087524
	C248.305084,318.316437 248.310394,318.364838 256.997498,318.551331
	C260.325226,318.622772 263.234558,319.277405 265.242340,322.247253
	C268.997162,327.801361 268.205017,330.203003 261.820801,331.975250
	C249.532822,335.386353 238.065033,340.406982 228.261993,349.263519
	C223.814026,345.533936 221.473938,340.854675 219.799438,335.777588
	C219.133301,333.757812 220.018005,332.213196 221.790802,331.152527
	C223.218994,330.298035 224.579330,329.268127 226.105255,328.651062
	C230.095490,327.037445 230.993179,324.514069 229.707092,320.383453
	C222.837769,298.320831 215.751312,276.338348 207.035873,254.919739
	C204.968445,249.838913 202.608856,244.877609 200.493561,239.815414
	C199.152069,236.605011 197.356201,235.644287 194.502029,238.139328
	C194.377609,238.248093 194.239990,238.382126 194.089233,238.414505
	C190.987869,239.080307 189.155487,246.710770 184.775208,240.239151
	C179.240097,232.061310 179.619034,226.546310 185.781601,222.496582
	C186.475235,222.040741 187.233856,221.683838 188.298950,221.114014
z"/>
    <path fill="#000000" opacity="1.000000" stroke="none"
          d="
M259.235718,145.633942
	C262.658569,142.875504 263.804474,145.393005 264.122894,147.713120
	C266.028137,161.595032 261.656616,175.382767 248.471100,182.006607
	C235.464554,188.540558 221.263916,185.792801 212.187057,174.032608
	C199.225601,157.239426 195.058151,131.832031 206.469803,111.551636
	C209.955688,105.356628 214.890427,100.478165 221.410614,97.295082
	C230.081879,93.061867 239.530426,95.182877 245.420914,102.849731
	C257.810944,118.976227 249.265793,149.235687 230.431808,156.354095
	C228.388657,157.126297 224.968170,156.130676 224.466705,158.939011
	C223.890442,162.166443 226.796265,164.328552 228.884018,166.343506
	C235.763535,172.983154 248.219101,170.014603 254.004898,160.477280
	C256.714233,156.011215 258.342194,151.147964 259.235718,145.633942
M220.470291,145.402969
	C234.025742,140.538620 240.229446,121.332420 232.022568,109.637939
	C229.272858,105.719719 227.047150,105.706146 224.546585,109.909218
	C220.478470,116.747177 218.220444,124.203903 218.332108,132.184189
	C218.392853,136.525024 216.925781,141.114807 220.470291,145.402969
z"/>
    <path fill="#000000" opacity="1.000000" stroke="none"
          d="
M154.944397,203.160873
	C142.702744,194.268646 138.107025,181.450851 135.934509,167.761459
	C134.238739,157.076080 136.065079,146.481979 140.797501,136.608887
	C144.054840,129.813217 145.765305,128.949814 152.993500,129.962753
	C154.396423,130.159348 155.239487,129.636322 155.973495,128.672089
	C160.572998,122.629753 165.940125,122.643784 173.649307,127.562790
	C187.785446,136.582672 194.809464,150.431549 198.065155,166.179535
	C199.953735,175.314667 199.744095,184.641418 194.864471,193.359451
	C185.990753,209.213455 170.551437,213.232590 154.944397,203.160873
M168.084381,193.470917
	C175.244705,196.910904 178.754074,195.609421 181.658844,188.388977
	C182.089523,187.318405 182.469452,186.196060 182.652756,185.062088
	C185.143677,169.652924 180.133362,156.245453 171.229401,144.074020
	C166.491318,137.597198 162.503555,138.312180 159.593445,145.798798
	C158.884811,147.621826 158.678513,149.643173 158.274078,151.580200
	C158.044968,152.677444 158.219955,154.004868 156.759415,154.180115
	C154.643677,154.185059 154.850006,151.306290 152.852478,151.353043
	C149.756546,159.552277 156.964005,186.014404 168.084381,193.470917
z"/>
    <path fill="#000000" opacity="1.000000" stroke="none"
          d="
M314.279968,287.633240
	C316.330475,290.481262 318.199158,293.009003 320.153015,295.651978
	C318.113129,299.167877 314.912781,301.285217 311.742218,303.339752
	C308.324402,305.554535 305.860748,303.777649 303.635529,301.056183
	C298.917419,295.285950 297.867249,288.065155 295.738281,281.292480
	C293.645874,274.636230 291.928436,267.862793 289.981262,261.159760
	C289.360687,259.023499 288.344025,256.640076 285.767517,257.006439
	C283.343781,257.351074 283.526062,259.930908 283.336243,261.892487
	C281.998993,275.711914 282.705200,289.433289 285.330444,303.060852
	C286.096741,307.038788 282.869141,311.911072 278.127472,313.745087
	C273.808929,315.415436 270.998047,312.983917 268.969360,309.740784
	C264.968079,303.344269 263.182739,295.965729 260.383453,289.036743
	C257.080841,280.861847 254.226166,272.505920 250.921387,264.331970
	C249.679749,261.260986 249.837341,258.971039 252.524292,256.906372
	C254.763351,255.185852 256.777344,253.157196 259.088806,251.549408
	C263.459991,248.508957 265.548737,249.200500 267.027527,254.371979
	C269.026367,261.362244 270.491211,268.507507 273.347473,276.041962
	C274.067139,267.579895 274.499756,259.852844 275.461365,252.192184
	C276.023865,247.710999 276.109344,242.500946 282.015320,241.042358
	C288.305115,239.488968 296.943970,242.515518 300.405243,247.345459
	C304.294678,252.772903 305.260590,259.325684 307.193512,265.467194
	C309.485962,272.751099 310.902618,280.309875 314.279968,287.633240
z"/>
    <path fill="#000000" opacity="1.000000" stroke="none"
          d="
M352.951172,241.743439
	C348.975769,253.228714 344.996155,264.306427 342.727020,277.113708
	C350.040649,270.210327 358.014984,267.707336 366.620941,266.802216
	C371.847260,266.252502 377.929565,273.708649 376.511322,278.840485
	C376.039032,280.549377 374.612885,280.588501 373.371490,280.787140
	C361.828033,282.634155 351.121613,286.156525 342.313873,294.433624
	C339.214722,297.346039 335.630432,294.862823 332.588226,293.308990
	C329.871338,291.921295 328.657990,289.607178 329.038300,286.283508
	C330.199158,276.137970 333.243530,266.454865 335.952698,256.687866
	C337.819305,249.958344 339.848389,243.274002 341.773071,236.560364
	C342.328583,234.622650 342.643494,232.660797 341.110138,230.146713
	C331.544342,231.800095 322.746368,235.378326 316.860291,243.616486
	C313.912781,247.741760 312.400055,246.321762 310.287781,243.529129
	C305.139679,236.722748 305.792542,232.561417 312.805634,227.871429
	C324.591309,219.989822 338.099213,217.132172 351.716705,214.565094
	C354.648010,214.012512 355.943359,215.368790 356.971558,217.821686
	C358.849854,222.302444 358.058075,226.642654 356.640198,230.985245
	C355.504303,234.464127 354.279449,237.913971 352.951172,241.743439
z"/>
</svg>