<?xml version="1.0" encoding="utf-8" ?><!-- created by svgstack.com | Attribution is required. --><svg xmlns="http://www.w3.org/2000/svg" xmlns:xlink="http://www.w3.org/1999/xlink" width="1024" height="1024"><path transform="scale(2 2)" d="M275.744 273.352C277.118 273.589 283.528 278.73 284.891 279.906C282.225 283.586 280.405 285.906 278.7 290.208C278.404 291.183 278.017 292.134 277.66 293.088C269.623 289.76 270.119 278.959 275.744 273.352Z"/><path fill="#7C7C7C" transform="scale(2 2)" d="M266.535 274.242C266.9 274.55 267.268 274.942 267.712 275.121C267.288 285.806 264.574 291.261 275.744 297.736C275.164 312.676 278.002 323.204 293.237 328.908C291.958 331.03 290.194 332.996 288.676 334.959C272.998 331.241 272.853 320.796 272.254 308.285C262.65 297.339 257.839 288.442 266.535 274.242Z"/><path fill="#7C7C7C" transform="scale(2 2)" d="M304.824 328.908C307.286 328.178 309.295 333.279 310.123 334.959C307.069 341.8 307.211 350.45 311.965 356.479C307.558 356.477 303.682 356.294 299.567 354.61C292.829 351.141 290.313 345.978 288.676 338.703C293.17 336.919 295.116 332.961 298.241 329.558C300.462 329.44 302.627 329.261 304.824 328.908Z"/><path fill="#7C7C7C" transform="scale(2 2)" d="M427.373 326.828C430.629 328.314 433.678 328.686 437.229 328.908C443.604 336.942 450.709 344.281 438.858 352.538C434.349 355.416 429.315 355.537 424.127 355.374C424.191 343.098 421.779 337.605 427.373 326.828Z"/><path fill="#7C7C7C" transform="scale(2 2)" d="M464.355 275.121C469.698 276.86 471.501 285.527 470.998 290.221C470.243 297.25 466.062 301.144 460.872 305.367C468.727 317.823 462.682 330.073 448.878 333.657C445.392 333.155 442.309 331.237 439.739 328.908C451.793 320.766 458.14 320.962 456.7 301.886C463.503 293.838 467.735 285.699 464.355 275.121Z"/><path transform="scale(2 2)" d="M318.225 312.326C324.683 312.21 328.071 315.191 328.951 321.497C348.077 321.384 346.337 335.268 332.593 338.703C314.356 340.841 297.584 316.025 318.225 312.326Z"/><path fill="#B7B6B8" transform="scale(2 2)" d="M319.363 323.372C322.617 322.836 318.793 326.113 318.225 326.828L317.893 327.052L317.558 326.971C317.291 324.962 317.516 324.189 319.363 323.372Z"/><path fill="#7C7C7C" transform="scale(2 2)" d="M360.32 328.908C361.329 328.126 361.868 326.564 362.993 326.066L363.007 337.849C362.752 385.735 303.96 370.402 313.408 338.703L313.685 338.789C326.969 343.058 331.731 348.037 345.338 336.553L345.598 336.46C350.604 334.722 357.111 333.729 360.32 328.908Z"/><path fill="#7C7C7C" transform="scale(2 2)" d="M374.604 323.372C377.237 326.253 379.796 328.515 383.214 330.431C386.114 332.645 382.77 333.576 380.472 333.657C382.934 335.085 385.569 335.293 388.075 336.436C389.927 337.28 391.232 339.16 393.028 340.167C400.975 346.695 412.626 341.721 419.777 336.553L419.803 345.953C419.809 351.989 419.703 357.233 415.571 362.051C407.123 371.902 389.739 370.463 380.64 362.488C369.273 352.526 371.365 339.845 370.537 327.081L370.518 326.828L370.518 326.066L371.462 325.325C372.103 323.472 372.712 323.357 374.604 323.372ZM374.604 323.372C372.712 323.357 372.103 323.472 371.462 325.325L370.518 326.066C373.706 328.741 376.819 331.625 380.472 333.657C382.77 333.576 386.114 332.645 383.214 330.431C379.796 328.515 377.237 326.253 374.604 323.372Z"/><path transform="scale(2 2)" d="M366.76 161.066C378.712 148.7 396.041 148.76 404.25 164.726C418.429 158.089 431.39 172.285 435.025 185.397C445.965 187.65 448.978 196.726 448.878 206.758C460.854 214.407 466.161 224.232 457.914 237.424C472.073 247.161 472.888 265.675 459.635 276.549C462.331 282.689 460.932 287.558 457.914 293.088C457.454 291.929 456.942 290.783 456.7 289.555C453.644 284.331 451.444 283.231 447.8 279.036L447.566 278.764C449.366 277.709 451.411 276.631 452.862 275.121C456.252 271.461 460.527 269.506 461.299 264.093C462.67 254.482 455.507 251.713 447.566 250.994C449.44 247.267 449.171 243.412 448.878 239.401C460.337 227.389 454.94 215.855 439.739 213.47C439.719 202.599 440.534 195.513 428.042 192.44C427.662 187.732 426.865 183.175 424.183 179.177C419.81 172.657 408.753 167.867 401.627 172.881C392.66 161.193 376.095 153.94 366.76 169.421C357.102 156.52 339.642 159.197 332.593 172.881C318.048 168.372 304.118 177.385 304.824 193.63C295.684 197.01 292.497 202.736 292.624 212.534C285.98 214.867 280.999 218.456 278.902 225.661C276.003 235.622 279.532 236.198 282.974 242.17C284.163 244.234 284.571 246.684 285.768 248.833C274.101 252.927 272.111 256.216 272.254 268.639C270.357 270.684 268.638 272.417 267.712 275.121C267.268 274.942 266.9 274.55 266.535 274.242C261.883 261.842 262.926 248.173 273.505 239.401C270.373 225.8 273.077 213.555 283.885 204.654C282.592 195.849 290.926 185.114 299.567 183.636C302.717 168.989 314.584 160.046 329.621 164.726C339.049 150.902 355.494 147.063 366.76 161.066Z"/><path transform="scale(2 2)" d="M189.663 168.423L234.499 168.423C234.717 187.946 234.503 207.498 234.502 227.023L234.499 343.223L189.663 343.223L189.663 168.423Z"/><path transform="scale(2 2)" d="M336.504 176.558C342.431 162.989 353.942 162.383 362.993 172.881C365.082 176.642 363.88 181.426 363.866 185.573L363.866 298.274C363.864 308.307 364.921 316.448 357.97 324.469C357.305 325.236 356.467 325.992 355.904 326.828C353.21 328.78 349.558 331.88 346.089 329.734C336.095 323.551 359.383 318.044 355.904 300.553C355.741 310.381 353.28 315.553 343.341 315.922C331.129 316.377 331.846 310.422 322.763 307.52C315.041 305.054 306.635 310.081 305.859 318.234C304.518 332.323 286.843 323.61 282.23 314.191C276.807 303.119 281.213 286.772 292.624 281.378C294.954 266.735 317.725 273.329 308.447 284.763C312.079 281.893 315.195 278.67 319.363 276.549C308.622 265.146 309.801 273.016 306.836 254.142C305.12 266.011 294.989 276.63 282.777 271.807C274.855 268.679 274.589 259.744 281.287 255.439C289.981 249.849 293.484 259.651 306.836 254.142C306.676 252.36 306.577 250.61 306.836 248.833C299.239 252.188 288.667 249.843 288.676 240.197C279.572 235.479 279.722 225.125 287.526 218.962C295.409 212.738 296.703 226.235 308.131 227.476L308.447 227.507L310.572 226.861L310.804 226.321C309.744 225.084 311.736 223.184 311.965 221.919C291.101 224.714 294.061 192.251 312.761 199.845C303.486 186.366 316.105 173.578 330.747 177.272C330.288 179.322 329.321 181.523 329.621 183.636L330.109 182.108C331.223 185.481 333.652 181.786 331.428 179.782C328.827 177.437 334.008 171.44 337.045 172.466C337.368 173.963 336.211 175.069 336.504 176.558ZM299.567 235.169C298.928 236.414 298.275 237.45 297.384 238.533L297.331 238.989C297.704 239.302 297.76 239.332 298.241 239.401C299.069 238.473 300.016 237.986 301.087 237.424C300.623 236.695 300.17 235.779 299.567 235.169ZM333.777 293.088C333.399 294.34 332.994 295.584 332.593 296.829L333.777 296.829C334.296 296.292 334.75 295.9 335.375 295.492C335.418 296.166 334.883 296.524 334.851 297.226C335.417 296.888 335.989 296.315 336.504 295.891C335.622 294.921 334.725 293.995 333.777 293.088ZM344.139 299.655C343.619 300.615 343.607 301.759 343.465 302.861L345.338 301.886L346.406 301.721L346.638 301.313C346.365 300.601 345.814 300.279 345.225 299.844L344.139 299.655ZM289.809 227.507L289.557 228.18C290.07 229.17 291.566 230.917 292.624 231.309C293.058 229.375 292.751 228.521 290.99 227.553L289.809 227.507ZM286.768 301.886C284.91 304.081 287.259 303.336 288.676 304.466L288.958 304.64C289.258 303.21 287.881 302.389 286.768 301.886Z"/><path fill="#B7B6B8" transform="scale(2 2)" d="M321.189 250.228C321.934 250.532 322.504 250.824 322.78 251.648L322.352 252.339C320.49 252.91 320.572 251.717 321.189 250.228Z"/><path fill="#B7B6B8" transform="scale(2 2)" d="M318.225 255.938L318.318 255.973C318.356 256.81 318.31 257.631 317.615 258.219L316.952 258.107C315.13 256.238 316.117 256.157 318.225 255.938Z"/><path fill="#B7B6B8" transform="scale(2 2)" d="M324.547 248.188C325.766 248.607 325.322 250.331 324.547 250.994C322.604 249.656 322.27 249.312 324.547 248.188Z"/><path fill="#B7B6B8" transform="scale(2 2)" d="M348.527 257.339C349.478 257.892 350.264 259.25 349.979 260.338L349.135 260.303C347.805 259.502 347.666 258.61 348.527 257.339Z"/><path fill="#7C7C7C" transform="scale(2 2)" d="M318.225 293.088C318.709 292.423 319.418 290.854 320.135 290.553L320.395 290.581L320.692 290.982L320.725 290.986C321.242 292.08 319.996 293.505 319.363 294.298C318.953 293.933 318.595 293.495 318.225 293.088Z"/><path fill="#D7D4D8" transform="scale(2 2)" d="M355.904 250.994C354.066 248.227 357.866 248.087 358.833 249.997L358.632 250.607L358.247 250.708L357.24 250.088L356.96 250.228L355.904 250.994Z"/><path fill="#7C7C7C" transform="scale(2 2)" d="M328.951 301.886C319.83 303.751 323.461 301.12 327.922 301.04C328.286 301.451 328.446 301.644 328.951 301.886Z"/><path fill="#FEFDFE" transform="scale(2 2)" d="M356.96 250.228C357.559 251.841 356.138 251.501 355.213 252.434L355.463 252.622C357.764 254.373 353.353 254.957 354.153 251.763C354.682 251.241 355.209 251.157 355.904 250.994L356.96 250.228Z"/><path fill="#B7B6B8" transform="scale(2 2)" d="M332.593 296.829L333.777 296.829C332.905 299.244 331.261 300.851 328.951 301.886C328.446 301.644 328.286 301.451 327.922 301.04C330.183 300.133 331.143 298.676 332.593 296.829Z"/><path fill="#FEFDFE" transform="scale(2 2)" d="M291.144 291.256C292.161 291.45 295.184 294.08 295.013 295.266C292.359 296.053 290.804 293.79 291.144 291.256Z"/><path fill="#B7B6B8" transform="scale(2 2)" d="M318.225 293.088C318.595 293.495 318.953 293.933 319.363 294.298C317.19 297.748 312.185 298.879 308.447 299.655C312.183 297.425 315.759 297.134 318.225 293.088Z"/><path fill="#7C7C7C" transform="scale(2 2)" d="M353.803 236.159L354.892 236.325C356.609 237.749 357.082 239.584 355.904 241.522C354.152 240.338 352.353 238.122 353.803 236.159Z"/><path fill="#B7B6B8" transform="scale(2 2)" d="M322.352 217.27C325.362 218.271 333.436 219.649 333.791 223.215L333.534 223.465L332.63 223.39L332.593 223.753C332.655 224.383 332.739 224.107 332.372 224.588L331.886 224.41C329.799 221.24 330.067 218.176 322.519 218.676L322.184 218.701C321.975 218.285 322.243 217.721 322.352 217.27Z"/><path fill="#B7B6B8" transform="scale(2 2)" d="M328.951 282.06C329.052 283.538 327.32 284.678 326.494 285.723C324.837 287.821 325.067 291.02 323.035 293.088C322.899 292.665 322.808 292.251 322.714 291.817L323.121 291.319C323.812 286.69 325.53 284.978 328.951 282.06Z"/><path fill="#D7D4D8" transform="scale(2 2)" d="M353.803 183.636C354.956 184.121 354.041 185.036 353.838 185.992C354.705 185.885 355.051 184.277 356.095 184.098C357.056 185.558 355.777 185.277 357.944 187.821C356.302 187.834 354.439 188.615 352.964 188.469C351.23 186.809 352.492 184.946 353.803 183.636Z"/><path fill="#B7B6B8" transform="scale(2 2)" d="M310.123 238.614C311.739 239.595 316.314 241.829 311.965 241.522C313.851 243.406 316.201 244.979 318.225 246.736C318.355 247.023 318.386 247.271 318.436 247.579L318.004 247.781C315.091 245.713 307.726 241.972 310.123 238.614Z"/><path fill="#FEFDFE" transform="scale(2 2)" d="M329.621 183.636L330.109 182.108C331.223 185.481 333.652 181.786 331.428 179.782C328.827 177.437 334.008 171.44 337.045 172.466C337.368 173.963 336.211 175.069 336.504 176.558C332.795 185.657 337.186 190.183 342.64 180.514C345.337 175.733 349.998 174.563 355.1 174.006C348.713 177.514 346.443 180.653 346.836 187.821C340.374 189.636 340.255 196.001 339.692 201.618C341.821 202.05 346.47 202.84 348.029 204.276L348.125 204.712C349.409 210.366 354.964 214.179 359.435 217.27C359.612 219.482 359.713 221.54 359.435 223.753C356.067 220.518 352.611 218.124 348.527 215.888C343.272 206.57 339.495 206.138 329.621 206.758C340.324 198.079 331.976 192.481 329.621 183.636Z"/><path fill="#FEFDFE" transform="scale(2 2)" d="M311.965 221.919C313.323 221.581 314.689 221.259 316.042 220.9C318.333 235.266 331.034 234.705 341.932 228.757C346.104 229.91 349.884 230.846 353.011 234.074C345.326 231.25 338.611 235.743 333.777 241.522C335.099 244.42 336.445 247.31 337.72 250.228C335.413 260.745 338.024 259.122 341.999 266.379C346.887 275.3 346.513 282.064 359.435 277.405C353.778 282.142 347.01 285.671 339.692 286.956C343.067 275.174 340.074 263.289 325.616 264.74C329.764 259.917 332.39 255.983 331.927 249.333C330.903 234.593 318.082 240.983 311.965 227.507C310.799 227.518 309.61 227.581 308.447 227.507L310.572 226.861L310.804 226.321C309.744 225.084 311.736 223.184 311.965 221.919Z"/><path transform="scale(2 2)" d="M370.518 172.881L371.588 171.258C381.294 156.382 403.25 174.998 396.548 185.397C397.933 186.534 399.923 186.243 401.627 186.518C402.635 183.501 401.141 178.745 404.534 176.971C413.223 172.427 427.191 184.984 420.832 196.591C428.299 197.112 435.06 200.027 434.326 208.531C432.442 230.37 422.61 216.153 419.019 218.964C418.119 219.669 415.392 227.317 415.294 228.757C414.22 230.628 415.656 234.606 412.963 235.401C411.789 235.747 410.583 235.557 410.141 236.961C411.145 236.892 411.75 236.117 412.951 236.159C417.247 234.791 420.345 230.318 421.874 226.233C439.285 229.601 433.256 215.66 442.127 217.146C450.426 218.537 453.384 228.293 447.566 234.074C450.552 241.44 446.359 237.258 443.139 238.757C442.134 242.147 445.271 246.899 439.875 249.963C435.207 252.615 433.072 250.2 428.738 250.38C426.063 250.491 423.509 251.98 420.832 252.339C425.43 253.728 430.622 255.829 435.379 256.266C442.693 256.938 451.567 250.364 456.471 259.498C457.746 261.872 457.25 266.314 454.551 267.608C448.878 270.329 452.802 266.521 448.878 272.32L449.27 272.415L449.749 271.97C450.847 272.079 452.192 272.768 453.068 273.431L453.15 273.842L452.678 274.396C452.755 274.956 452.676 274.72 452.862 275.121C451.411 276.631 449.366 277.709 447.566 278.764L447.8 279.036C451.444 283.231 453.644 284.331 456.7 289.555L455.84 288.893C454.507 291.463 453.665 291.078 453.193 291.985L453.354 292.32C453.68 292.295 454.067 292.22 454.389 292.24L454.382 292.71L453.983 293.005L452.991 292.824C452.709 293.836 453.487 295.025 452.862 295.891C452.667 298.184 452.206 299.97 450.855 301.886C457.141 314.268 442.751 327.527 431.759 323.921C428.053 322.705 428.64 320.776 428.042 317.602C427.268 317.422 426.977 317.838 426.219 317.623C425.257 313.394 423.699 317.392 424.127 319.781C422.15 332.33 408.646 342.23 396.548 337.435C394.72 337.178 392.807 337.525 390.961 337.572C391.196 338.42 392.555 339.225 393.028 340.167C391.232 339.16 389.927 337.28 388.075 336.436C385.569 335.293 382.934 335.085 380.472 333.657C382.77 333.576 386.114 332.645 383.214 330.431C379.796 328.515 377.237 326.253 374.604 323.372C372.712 323.357 372.103 323.472 371.462 325.325L370.518 326.066L370.518 326.828C368.608 326.548 366.307 326.855 364.034 326.844L363.647 326.845L362.993 326.066C361.868 326.564 361.329 328.126 360.32 328.908L360 328.7C358.992 329.401 357.472 331.837 356.29 331.802C355.775 330.897 355.499 327.908 355.904 326.828C356.467 325.992 357.305 325.236 357.97 324.469C364.921 316.448 363.864 308.307 363.866 298.274L363.866 185.573C363.88 181.426 365.082 176.642 362.993 172.881C364.581 172.55 370.356 165.021 370.518 172.881Z"/><path fill="#B7B6B8" transform="scale(2 2)" d="M378.521 234.074C379.363 234.004 380.693 233.712 381.457 234.074C380.402 235.631 379.387 235.692 378.521 234.074Z"/><path fill="#D7D4D8" transform="scale(2 2)" d="M438.858 230.61C440.333 230.723 440.627 230.91 440.47 232.416C438.788 232.446 438.233 232.342 438.858 230.61Z"/><path fill="#B7B6B8" transform="scale(2 2)" d="M383.214 258.107C384.741 258.471 385.186 258.866 384.483 260.338L383.874 260.397C383.148 259.747 382.967 259.072 383.214 258.107Z"/><path fill="#B7B6B8" transform="scale(2 2)" d="M396.548 221.919C396.68 221.184 396.591 220.886 397.202 220.423L399.414 220.9C398.738 222.304 397.927 222.673 396.548 221.919Z"/><path fill="#FEFDFE" transform="scale(2 2)" d="M426.234 204.654L426.41 204.843C426.24 205.576 426.084 206.017 425.672 206.646L424.818 206.758C423.205 205.327 424.884 204.754 426.234 204.654Z"/><path fill="#D7D4D8" transform="scale(2 2)" d="M433.981 239.401C435.402 235.157 438.335 238.502 435.391 238.887L435.025 239.401C434.761 239.353 434.256 239.398 433.981 239.401Z"/><path fill="#B7B6B8" transform="scale(2 2)" d="M410.979 192.44C413.359 192.097 412.577 192.818 411.851 194.581C411.256 194.821 411.566 194.749 410.918 194.793L410.614 194.25C410.646 193.589 410.629 193.027 410.979 192.44Z"/><path fill="#7C7C7C" transform="scale(2 2)" d="M385.051 245.118C386.505 245.78 384.984 247.857 384.483 248.833C383.221 247.404 383.932 246.392 385.051 245.118Z"/><path fill="#D7D4D8" transform="scale(2 2)" d="M440.47 301.04C442.368 302.036 441.098 303.886 440.47 305.367L440.345 305.394L440.054 305.18C439.793 303.764 439.899 302.368 440.47 301.04Z"/><path fill="#D7D4D8" transform="scale(2 2)" d="M435.025 239.401C436.463 243.722 432.525 240.711 432.258 238.609C432.965 238.516 433.4 239.016 433.981 239.401C434.256 239.398 434.761 239.353 435.025 239.401Z"/><path fill="#D7D4D8" transform="scale(2 2)" d="M407.921 192.44C409.586 193.434 409.87 195.882 409.115 197.557C407.894 195.692 406.542 194.53 407.921 192.44Z"/><path fill="#7C7C7C" transform="scale(2 2)" d="M400.561 275.121C402.933 275.683 402.344 276.953 401.627 278.764C399.73 277.699 398.995 276.855 400.561 275.121Z"/><path fill="#B7B6B8" transform="scale(2 2)" d="M446.187 260.338L446.418 260.159L446.774 260.242C446.326 261.253 446.026 262.399 445.943 263.504L445.073 263.835L444.657 263.618C444.57 261.445 443.093 260.385 446.187 260.338Z"/><path fill="#B7B6B8" transform="scale(2 2)" d="M411.851 203.347L412.138 203.435C413.919 203.962 414.303 203.555 415.634 202.398L416.013 203.073L415.882 203.434L415.158 203.711L415.11 203.973C417.54 204.513 415.331 206.724 412.951 204.654L411.851 203.347Z"/><path fill="#FEFDFE" transform="scale(2 2)" d="M436.393 301.04C438.605 301.799 437.414 303.56 436.744 305.241L436.393 305.367C436.007 304.592 434.42 303.725 434.497 302.976C435.956 303.12 436.246 302.327 436.393 301.04Z"/><path fill="#B7B6B8" transform="scale(2 2)" d="M409.115 283.123C410.577 284.995 410.972 289.079 410.285 291.256C408.955 290.001 408.274 284.503 409.115 283.123Z"/><path fill="#7C7C7C" transform="scale(2 2)" d="M378.521 234.074C379.766 232.413 381.252 231.29 383.214 230.61C383.68 231.159 383.772 231.138 384.483 231.309C382.84 231.718 382.351 232.74 381.457 234.074C380.693 233.712 379.363 234.004 378.521 234.074Z"/><path fill="#7C7C7C" transform="scale(2 2)" d="M400.561 279.906C402.636 276.505 403.124 279.938 402.648 281.941L402.264 282.203L401.627 282.06C398.662 283.154 399.4 281.768 400.561 279.906Z"/><path fill="#B7B6B8" transform="scale(2 2)" d="M438.858 291.256C439.336 291.23 439.745 291.284 440.218 291.346L440.522 291.744C439.964 292.726 438.157 293.331 437.27 294.13L437.229 295.266L437.194 295.666C433.866 296.374 436.118 292.497 438.858 291.256Z"/><path fill="#7C7C7C" transform="scale(2 2)" d="M410.979 219.406L411.278 219.814C411.199 220.127 411.124 220.44 411.052 220.754L411.251 220.937C411.694 220.623 412.032 220.343 412.57 220.223L412.703 220.508C411.339 222.277 409.794 225.061 407.921 226.233C406.595 225.578 407.463 223.058 407.984 222.082C408.771 222.002 409.043 223.009 409.917 223.206C410.869 222.182 410.659 221.466 410.42 220.15L410.979 219.406Z"/><path fill="#B7B6B8" transform="scale(2 2)" d="M424.818 296.829C429.751 299.608 428.047 298.945 425.359 299.328L424.818 301.04L424.779 301.499L424.496 301.549C422.696 298.65 423.116 299.522 424.818 296.829Z"/><path fill="#B7B6B8" transform="scale(2 2)" d="M399.414 220.9C399.345 219.554 399.624 218.676 401.095 218.548C403.593 220.242 400.798 221.06 400.186 222.538L400.561 223.753L400.131 223.716L399.614 223.021L399.183 223.078C399.128 223.662 399.376 224.017 399.632 224.523L399.586 224.755C398.985 224.728 398.693 224.598 398.177 224.295L397.994 223.776C398.432 222.913 399.624 222.19 399.742 221.317L399.414 220.9Z"/><path fill="#B7B6B8" transform="scale(2 2)" d="M376.64 287.888C380.11 289.534 379.329 292.661 378.521 295.891L378.098 296.291L377.875 296.118C377.987 295.081 378.261 294.095 378.521 293.088L378.014 292.232C377.152 290.779 376.782 289.574 376.64 287.888Z"/><path fill="#B7B6B8" transform="scale(2 2)" d="M410.979 290.208C412.095 290.908 415.714 294.777 415.294 296.829C413.32 294.788 409.365 293.433 410.979 290.208Z"/><path fill="#B7B6B8" transform="scale(2 2)" d="M433.183 282.06C438.089 282.236 430.195 283.249 429.65 289.555L429.549 290.276L429.173 290.226C428.445 288.402 429.11 286.541 429.65 284.763C430.885 284.021 432.052 282.958 433.183 282.06Z"/><path fill="#7C7C7C" transform="scale(2 2)" d="M420.832 241.522C424.099 242.347 425.161 242.153 422.127 243.358C421.185 243.733 413.03 249.737 412.951 250.994L413.127 251.376L412.927 251.713C412.363 251.82 412.122 251.768 411.592 251.553L411.417 251.043C412.206 248.485 417.657 245.692 419.777 244.024L420.832 241.522Z"/><path fill="#B7B6B8" transform="scale(2 2)" d="M411.851 206.758C411.913 205.771 411.557 205.024 411.321 204.088L411.851 203.347L412.951 204.654C413.029 206.095 413.303 206.616 412.951 208.161C413.009 209.542 412.465 209.965 411.133 209.798L410.285 209.035C409.774 209.789 409.738 210.594 409.643 211.474L409.249 211.762L408.776 211.681C406.648 209.745 407.845 208.092 410.285 208.161C410.965 207.735 411.346 207.383 411.851 206.758Z"/><path fill="#7C7C7C" transform="scale(2 2)" d="M398.262 299.655C398.323 297.049 396.776 293.367 396.855 292.381L397.233 292.205C398.608 292.817 399.84 296.365 400.561 297.736C403.862 303.848 405.627 300.148 411.678 302.964L411.749 303.244C409.58 303.619 399.695 301.461 398.262 299.655Z"/><path fill="#FEFDFE" transform="scale(2 2)" d="M413.377 272.32C425.485 272.128 420.973 264.328 428.042 258.107C428.636 261.415 429.465 264.609 430.474 267.81C434.921 268.776 445.818 273.362 447.405 272.82L448.878 272.32L449.27 272.415L449.749 271.97C450.847 272.079 452.192 272.768 453.068 273.431L453.15 273.842L452.678 274.396C452.755 274.956 452.676 274.72 452.862 275.121C451.411 276.631 449.366 277.709 447.566 278.764L447.8 279.036C451.444 283.231 453.644 284.331 456.7 289.555L455.84 288.893C454.507 291.463 453.665 291.078 453.193 291.985L453.354 292.32C453.68 292.295 454.067 292.22 454.389 292.24L454.382 292.71L453.983 293.005L452.991 292.824C452.709 293.836 453.487 295.025 452.862 295.891C452.412 289.438 449.403 286.207 443.307 283.889C444.953 273.447 419.614 263.564 424.127 283.123C419.524 280.544 416.504 276.456 413.377 272.32Z"/><path fill="#FEFDFE" transform="scale(2 2)" d="M377.615 301.04C378.772 306.223 378.385 311.833 383.972 314.713C396.331 321.082 402.94 310.181 410.042 307.883C418.053 305.291 425.67 309.757 428.042 317.602C427.268 317.422 426.977 317.838 426.219 317.623C425.257 313.394 423.699 317.392 424.127 319.781C419.973 310.142 407.038 309.682 405.38 321.497C392.462 320.868 386.198 331.022 396.548 337.435C394.72 337.178 392.807 337.525 390.961 337.572C391.196 338.42 392.555 339.225 393.028 340.167C391.232 339.16 389.927 337.28 388.075 336.436C385.569 335.293 382.934 335.085 380.472 333.657C382.77 333.576 386.114 332.645 383.214 330.431C386.375 331.323 390.198 330.096 390.482 326.257C391.089 318.057 376.177 319.872 377.615 301.04Z"/><path fill="#FEFDFE" transform="scale(2 2)" d="M409.115 232.416C411.526 231.522 413.29 230.358 415.294 228.757C414.22 230.628 415.656 234.606 412.963 235.401C411.789 235.747 410.583 235.557 410.141 236.961C411.145 236.892 411.75 236.117 412.951 236.159C412.303 236.595 411.663 237.045 410.979 237.424C396.09 242.717 400.002 255.076 407.921 264.74C395.299 261.505 393.534 271.666 391.393 280.416C390.658 283.425 390.168 284.774 390.586 287.888C385.248 284.301 378.909 282.363 374.604 277.405C385.037 281.744 386.878 274.52 391.02 267.001C398.381 253.638 394.603 262.192 395.337 249.165C395.843 240.184 398.559 234.866 384.483 231.309C383.772 231.138 383.68 231.159 383.214 230.61C387.476 229.084 401.181 233.449 409.115 232.416Z"/><path transform="scale(2 2)" d="M405.38 321.497C407.038 309.682 419.973 310.142 424.127 319.781C422.15 332.33 408.646 342.23 396.548 337.435C386.198 331.022 392.462 320.868 405.38 321.497Z"/><path fill="#FEFDFE" transform="scale(2 2)" d="M370.518 172.881L371.588 171.258C381.294 156.382 403.25 174.998 396.548 185.397C397.933 186.534 399.923 186.243 401.627 186.518C400.186 188.126 398.554 189.218 396.548 190.015C401.092 196.549 398.983 198.202 396.548 204.654C398.42 204.957 400.354 204.965 402.194 205.399C398.575 209.643 395.276 208.554 390.586 206.758C386.588 208.197 386.864 211.126 384.578 214.035C380.253 219.537 372.307 221.465 369.783 228.579C368.327 232.682 369.139 237.965 369.154 242.235L369.234 264.543C369.232 279.036 368.785 293.678 369.337 308.154C369.603 315.137 370.011 317.922 374.604 323.372C372.712 323.357 372.103 323.472 371.462 325.325L370.518 326.066L370.518 326.828C368.608 326.548 366.307 326.855 364.034 326.844L363.647 326.845L362.993 326.066C361.868 326.564 361.329 328.126 360.32 328.908L360 328.7C358.992 329.401 357.472 331.837 356.29 331.802C355.775 330.897 355.499 327.908 355.904 326.828C356.467 325.992 357.305 325.236 357.97 324.469C364.921 316.448 363.864 308.307 363.866 298.274L363.866 185.573C363.88 181.426 365.082 176.642 362.993 172.881C364.581 172.55 370.356 165.021 370.518 172.881Z"/><path transform="scale(2 2)" d="M370.518 172.881L371.588 171.258C381.294 156.382 403.25 174.998 396.548 185.397C392.266 188.259 390.104 180.119 388.51 177.272C384.984 175.104 380.658 174.611 376.64 174.006L377.685 174.463C389.016 179.369 383.344 183.161 387.566 188.776C389.936 191.928 394.694 192.071 395.011 196.795C395.363 202.061 388.116 201.613 385.295 204.112C382.952 206.188 382.274 209.59 380.137 211.854C376.824 215.363 373.021 216.452 369.235 220.9L369.253 188.242C369.239 183.78 367.621 176.47 370.518 172.881Z"/><path fill="#B7B6B8" transform="scale(2 2)" d="M384.483 195.397L385.966 196.311C385.532 196.575 385.183 196.833 384.829 197.196L384.483 197.557L384.023 197.759C382.526 196.972 383.449 196.037 384.483 195.397Z"/><path fill="#B7B6B8" transform="scale(2 2)" d="M390.586 177.272C393.129 177.54 391.925 179.423 391.632 181.165C390.665 179.924 389.816 178.808 390.586 177.272Z"/><path fill="#D7D4D8" transform="scale(2 2)" d="M375.52 201.618L378.521 201.618C379.294 203.613 379.888 203.82 377.615 204.654C372.523 203.255 376.748 203.066 377.277 202.751C376.739 202.285 376.137 201.965 375.52 201.618Z"/><path transform="scale(2 2)" d="M106.726 167.775C117.028 166.428 129.033 169.514 137.192 175.936C146.483 183.248 148.653 193.986 150.83 204.88L173.125 314.832C175.143 324.214 177.734 333.688 178.85 343.223L132.02 343.223C130.432 335.116 129.608 326.16 127.583 318.303L112.688 318.303L92.2241 318.303C90.3146 326.453 89.0883 334.968 87.6626 343.223C72.9431 342.631 56.1398 342.942 41.4214 343.223C41.8619 337.47 43.7207 331.491 44.8889 325.808L51.9016 291.187C56.8536 267.269 61.8489 243.35 67.3367 219.548C73.5224 192.72 73.1085 172.411 106.726 167.775ZM110.51 210.657C109.174 216.337 108.429 222.202 107.405 227.948C104.338 245.17 101.162 266.294 96.6375 283.123L109.375 283.123C113.873 283.095 118.429 282.916 122.922 283.123C122.007 276.117 120.552 269.145 119.317 262.188L112.225 219.836C111.724 216.83 111.383 213.579 110.51 210.657Z"/></svg> 